<?xml version="1.0" standalone="no"?>
<!DOCTYPE svg PUBLIC "-//W3C//DTD SVG 20010904//EN"
 "http://www.w3.org/TR/2001/REC-SVG-20010904/DTD/svg10.dtd">
<svg version="1.0" xmlns="http://www.w3.org/2000/svg"
 width="700.000000pt" height="700.000000pt" viewBox="0 0 700.000000 700.000000"
 preserveAspectRatio="xMidYMid meet">
<metadata>
Created by potrace 1.14, written by Peter Selinger 2001-2017
</metadata>
<g transform="translate(0.000000,700.000000) scale(0.100000,-0.100000)"
fill="#000000" stroke="none">
<path d="M5301 5300 c-89 -21 -116 -72 -170 -318 -23 -101 -41 -185 -41 -188
0 -2 -22 -15 -49 -29 -112 -56 -143 -192 -64 -286 55 -64 143 -85 219 -50 64
29 97 80 102 156 4 65 -9 106 -48 145 -18 18 -17 23 26 214 24 108 44 199 44
201 0 3 176 5 390 5 276 0 390 -3 390 -11 0 -11 -736 -3257 -746 -3291 -5 -17
-36 -18 -458 -18 -419 0 -454 1 -468 18 -8 9 -81 258 -163 552 -182 661 -181
657 -205 670 -26 14 -73 13 -94 -3 -13 -10 -45 -139 -131 -537 -63 -289 -122
-558 -130 -597 -9 -40 -23 -80 -31 -88 -13 -13 -83 -15 -505 -15 -269 0 -489
2 -489 4 0 25 -114 497 -126 522 -21 43 -66 78 -119 93 -25 7 -158 11 -354 11
l-314 0 -33 39 c-63 73 -152 92 -235 48 -58 -31 -103 -112 -96 -172 11 -102
86 -175 179 -175 65 0 107 19 150 69 l35 41 310 0 c234 0 313 -3 327 -13 12
-9 35 -92 82 -297 36 -157 67 -293 70 -302 5 -17 41 -18 569 -18 373 0 573 4
592 11 39 14 101 77 113 113 10 33 190 853 190 870 0 31 23 -44 130 -430 131
-469 144 -501 219 -541 l44 -23 528 0 c290 0 530 3 532 8 3 4 55 230 117 502
61 272 222 979 357 1570 134 591 267 1174 294 1295 27 121 51 228 53 238 4 16
-24 17 -477 16 -265 -1 -497 -5 -516 -9z"/>
<path d="M1515 5082 c-49 -23 -79 -55 -100 -104 -40 -98 14 -212 117 -243 80
-23 142 -3 200 65 l35 40 239 0 c131 0 244 4 250 8 16 11 34 48 34 72 0 11
-11 32 -25 45 l-24 25 -244 0 -244 0 -11 25 c-31 67 -151 103 -227 67z"/>
<path d="M3705 5081 c-74 -34 -105 -85 -105 -173 0 -103 76 -178 179 -178 65
0 123 29 154 75 l22 35 172 0 c180 0 215 -6 233 -39 6 -11 136 -418 290 -903
154 -486 285 -895 291 -910 22 -56 108 -59 139 -6 13 24 10 39 -43 205 -31 98
-160 504 -287 903 -126 399 -239 746 -251 772 -12 26 -34 58 -48 72 -52 50
-84 56 -298 56 l-198 0 -29 36 c-54 68 -144 91 -221 55z"/>
<path d="M2488 4978 c-22 -17 -39 -63 -31 -85 17 -48 31 -53 143 -53 133 0
169 -7 181 -34 6 -12 79 -325 164 -696 164 -720 161 -710 220 -710 36 0 75 37
75 71 0 28 -185 864 -270 1226 -64 267 -85 286 -320 291 -108 2 -149 0 -162
-10z"/>
<path d="M3473 4648 c-23 -25 -223 -643 -223 -687 0 -14 4 -31 8 -37 10 -16
48 -34 70 -34 48 0 60 27 167 364 58 181 105 339 105 352 0 57 -87 85 -127 42z"/>
<path d="M1535 4361 c-62 -11 -99 -38 -239 -180 l-129 -131 -56 0 c-52 1 -57
3 -76 33 -40 63 -145 94 -218 63 -41 -17 -91 -74 -107 -121 -26 -79 19 -183
95 -219 45 -22 123 -23 163 -2 16 8 42 30 59 49 27 31 36 35 104 41 40 4 87
13 104 20 17 7 93 77 170 155 l139 141 213 0 214 0 13 -32 c8 -18 32 -116 56
-218 23 -102 48 -195 56 -207 31 -50 134 -15 134 44 0 45 -92 420 -113 463
-16 31 -38 54 -72 75 l-48 30 -211 2 c-116 1 -229 -2 -251 -6z"/>
<path d="M2160 3411 c-85 -27 -119 -63 -178 -191 -47 -102 -63 -120 -107 -120
-27 0 -44 10 -83 49 -54 54 -93 68 -163 58 -165 -22 -210 -257 -66 -342 81
-47 176 -30 239 44 32 37 39 41 82 41 103 0 164 49 226 183 24 51 50 100 58
110 14 15 42 17 322 17 296 0 308 1 334 21 32 25 35 75 7 110 l-19 24 -314 2
c-172 1 -324 -2 -338 -6z"/>
</g>
</svg>
