<svg fill="none" height="213" viewBox="0 0 328 213" width="328" xmlns="http://www.w3.org/2000/svg"><g fill="#000"><path d="m265.52 32.8963 4.049-17.8637.825-3.5728c.062-.6365.217-1.2604.459-1.85122.15-.17279.415-.26998.734-.32097v.02444h2.323l.044.00034h42.53l-44.107 194.03461c-.028.113-.055.227-.082.341h-51.382v.109c-.646-.022-1.288-.133-1.908-.331-.415-.264-.767-.616-1.033-1.032-.267-.415-.44-.884-.508-1.374-.556-1.841-1.058-3.695-1.56-5.546v-.003l-.002-.004c-.324-1.2-.649-2.399-.988-3.592l-16.219-58.369c-1.174-4.239-7.852-4.572-8.843 0l-12.457 57.277c-.697 3.258-1.395 6.497-2.128 9.755l-.021.091c-.249 1.115-.487 2.183-1.612 2.76-1.15.614-2.928.494-4.489.388-.555-.037-1.085-.073-1.547-.073h-.056v-.055h-51.387l-.462-2.028-2.438-10.838-2.496-10.978c-.361-2.26-.976-4.471-1.834-6.59-3.275-6.626-9.8508-6.591-16.0286-6.558-.4327.002-.8635.004-1.2911.004h-29.5724c-1.7432-3.813-5.566-6.46-10.0015-6.46-6.0796 0-11.0081 4.973-11.0081 11.107s4.9285 11.107 11.0081 11.107c4.4427 0 8.2706-2.655 10.0099-6.479h33.6737c.2492 0 .5151-.009.7898-.019 1.2221-.043 2.6196-.092 3.5032.648.412.345.701.904.919 1.542l.648 2.846c.022.109.044.214.066.314l6.44 28.287c.019.084.04.167.062.249l.707 3.102h2.941c.243.036.499.055.766.055h59.609c2.591-.002 5.114-.836 7.205-2.38s3.641-3.718 4.427-6.21c.443-1.492.746-3.042 1.048-4.584l.001-.007c.147-.751.293-1.5.455-2.24l7.541-34.635 1.967-9.081 10.729 38.496 2.917 10.515c1.688 6.09 6.054 10.07 12.531 10.126h55.04c.216-.004.431-.023.643-.056h2.937l.622-2.737c.086-.192.159-.391.219-.595l15.044-66.546 25.521-112.1316c.698-3.1279 1.436-6.2504 2.175-9.3748l.001-.0029v-.002c1.202-5.0835 2.404-10.1731 3.438-15.2968v-.16287l1.373-6.0389878h-53.5c-.908-.0748924-1.819-.0745533-2.723 0h-.19v.0167957c-1.175.1105051-2.337.3464231-3.468.7055131-4.017 1.610549-5.724 5.053779-6.623 8.996839l-2.201 10.14461-2.522 10.8726c-5.103.9671-8.963 5.4866-8.963 10.916 0 6.1343 4.928 11.1072 11.008 11.1072 6.079 0 11.008-4.9729 11.008-11.1072 0-3.5897-1.688-6.7817-4.306-8.8121z"/><path d="m211.043 27.8799h-20.574c-1.74 3.8237-5.568 6.4792-10.01 6.4792-6.08 0-11.008-4.9728-11.008-11.1072 0-6.1343 4.928-11.1072 11.008-11.1072 4.442 0 8.27 2.6555 10.01 6.4792h17.345c2.162-.1298 4.332-.0367 6.476.2777 5.467 1.0922 8.054 5.4981 9.595 10.3482l3.395 10.4778 29.666 93.4484c1.817 5.683-7.008 8.016-8.843 2.462l-33.171-104.4444c-.66-2.0919-1.431-3.3137-3.889-3.3137z"/><path d="m117.474 27.8799h-10.402c-5.908 0-5.908-9.256 0-9.256h11.998c2.785-.0588 5.507.843 7.715 2.5563 2.209 1.7132 3.772 4.1354 4.431 6.8663 2.29 9.0431 4.293 18.1851 6.294 27.316.998 4.5515 1.995 9.1002 3.026 13.6326l8.403 37.1719c1.321 5.813-7.522 8.275-8.843 2.462l-14.678-64.4955c-.403-1.7499-.793-3.5054-1.183-5.261-.62-2.7946-1.241-5.5897-1.917-8.3639-.661-2.6287-2.55-2.6287-4.844-2.6287z"/><path d="m61.9608 18.6239h26.7641c5.9077 0 5.9077 9.256 0 9.256h-26.7136c-1.7273 3.8535-5.5708 6.5348-10.035 6.5348-6.0795 0-11.008-4.9729-11.008-11.1072 0-6.1344 4.9285-11.1072 11.008-11.1072 4.4212 0 8.2335 2.6298 9.9845 6.4236z"/><path d="m121.877 110.721h-33.6475c-2.1719.022-4.2988.627-6.1625 1.753-1.8636 1.125-3.3967 2.731-4.4419 4.652-.762 1.408-1.4566 2.853-2.1508 4.298l-.0035.007c-.3909.814-.782 1.628-1.1848 2.434-.1649.328-.3385.735-.5268 1.177-.6287 1.474-1.4203 3.329-2.5921 3.913-.8418.295-1.7396.39-2.6236.278h-2.3742c-1.7393-3.824-5.5672-6.479-10.0099-6.479-6.0796 0-11.008 4.973-11.008 11.107s4.9284 11.107 11.008 11.107c4.421 0 8.2333-2.629 9.9844-6.423 1.2112-.005 2.4161-.021 3.6106-.056 2.1986-.018 4.3527-.628 6.2396-1.767 1.8868-1.139 3.438-2.766 4.4932-4.712.7704-1.433 1.4775-2.906 2.1837-4.377l.0008-.002.0014-.003.0017-.003c.3689-.769.7375-1.537 1.1148-2.298.1663-.336.3356-.73.5159-1.149.7144-1.664 1.6005-3.728 3.1535-4.127 1.0848-.129 2.1809-.129 3.2657 0h31.0423c5.908 0 5.908-9.256 0-9.256z"/><path d="m158.076 80.0282 10.292-32.433 1.486-4.6465c1.835-5.6832-7.045-8.1268-8.843-2.4621l-10.311 32.4145-1.468 4.6651c-1.834 5.6831 7.046 8.1082 8.844 2.462z"/><path d="m20.9973 82.9982c-1.7487 3.7995-5.5641 6.4342-9.9893 6.4342-6.07953 0-11.008-4.9729-11.008-11.1073 0-6.1343 4.92847-11.1072 11.008-11.1072 4.457 0 8.2954 2.6727 10.0267 6.5163h1.1282c.4497 0 .9075.0122 1.368.0244.9295.0248 1.8706.0498 2.7783-.0244 1.188-.2001 2.2496-.8654 2.9539-1.8512l8.4211-8.497c.6082-.5999 1.205-1.2411 1.8086-1.8896 1.818-1.9534 3.6976-3.973 6.1356-5.1265 2.739-1.2959 5.739-1.2486 8.6918-1.202.5479.0086 1.0946.0172 1.6374.0172h12.8427c.288 0 .5754-.0012.8622-.0023 3.4586-.0144 6.8197-.0284 9.8523 2.0572 3.6694 2.4991 4.7335 6.22 5.6508 10.2556l4.495 19.7153-.0367-.0555c1.321 5.8128-7.5222 8.2748-8.8431 2.4621l-4.8986-21.2703c-.477-2.1104-.9174-3.9616-3.3942-3.9616h-20.3832c-.9508-.1305-1.9188.0173-2.7887.4258-.6828.5407-1.2988 1.1623-1.8347 1.8512l-8.3478 8.4229c-.4882.4927-.9773 1.0134-1.4733 1.5416-1.8529 1.9727-3.8039 4.05-6.1773 5.1598-2.8839 1.3711-6.2027 1.3004-9.394 1.2324-.3658-.0078-.73-.0155-1.0917-.0211z"/></g></svg>