<svg fill="none" viewBox="0 0 410 410" xmlns="http://www.w3.org/2000/svg"><g fill="#000"><path d="m306.52 131.896 4.049-17.863.825-3.573c.062-.637.217-1.261.459-1.851.15-.173.415-.27.734-.321v.024h44.897l-44.107 194.035c-.028.113-.055.227-.082.341h-51.382v.109c-.646-.022-1.288-.133-1.908-.331-.415-.264-.767-.616-1.033-1.032-.267-.415-.44-.884-.508-1.374-.556-1.841-1.058-3.695-1.56-5.546v-.003l-.002-.004c-.324-1.2-.649-2.399-.988-3.592l-16.219-58.369c-1.174-4.239-7.852-4.572-8.843 0l-12.457 57.277c-.697 3.258-1.395 6.497-2.128 9.755l-.021.091c-.249 1.115-.487 2.183-1.612 2.76-1.15.614-2.928.494-4.489.388-.555-.037-1.085-.073-1.547-.073h-.056v-.055h-51.387l-.462-2.028-2.438-10.838-2.496-10.978c-.361-2.26-.976-4.471-1.834-6.59-3.275-6.626-9.851-6.591-16.029-6.558-.432.002-.863.004-1.291.004h-29.572c-1.743-3.813-5.5661-6.46-10.0016-6.46-6.0796 0-11.0081 4.973-11.0081 11.107s4.9285 11.107 11.0081 11.107c4.4427 0 8.2706-2.655 10.0096-6.479h33.674c.249 0 .515-.009.79-.019 1.222-.043 2.619-.092 3.503.648.412.345.701.904.919 1.542l.648 2.846c.022.109.044.214.066.314l6.44 28.287c.019.084.04.167.062.249l.707 3.102h2.941c.243.036.499.055.766.055h59.609c2.591-.002 5.114-.836 7.205-2.38s3.641-3.718 4.427-6.21c.443-1.492.746-3.042 1.048-4.584l.001-.007c.147-.751.293-1.5.455-2.24l7.541-34.635 1.967-9.081 10.729 38.496 2.917 10.515c1.688 6.09 6.054 10.07 12.531 10.126h55.04c.216-.004.431-.023.643-.056h2.937l.622-2.737c.086-.192.159-.391.219-.595l15.044-66.546 25.521-112.132c.698-3.128 1.436-6.25 2.175-9.374l.001-.003v-.002c1.202-5.084 2.404-10.173 3.438-15.297v-.163l1.373-6.039h-53.5c-.908-.0749-1.819-.0745-2.723 0h-.19v.0168c-1.175.1105-2.337.3465-3.468.7056-4.017 1.6106-5.724 5.0536-6.623 8.9966l-2.201 10.145-2.522 10.872c-5.103.968-8.963 5.487-8.963 10.916 0 6.135 4.928 11.108 11.008 11.108 6.079 0 11.008-4.973 11.008-11.108 0-3.589-1.688-6.781-4.306-8.812z"/><path d="m252.043 126.88h-20.574c-1.74 3.824-5.568 6.479-10.01 6.479-6.08 0-11.008-4.973-11.008-11.107s4.928-11.107 11.008-11.107c4.442 0 8.27 2.655 10.01 6.479h17.345c2.162-.13 4.332-.037 6.476.278 5.467 1.092 8.054 5.498 9.595 10.348l3.395 10.478 29.666 93.448c1.817 5.683-7.008 8.016-8.843 2.462l-33.171-104.444c-.66-2.092-1.431-3.314-3.889-3.314zm-93.569 0h-10.402c-5.908 0-5.908-9.256 0-9.256h11.998c2.785-.059 5.507.843 7.715 2.556 2.209 1.713 3.772 4.136 4.431 6.867 2.29 9.043 4.293 18.185 6.294 27.315.998 4.552 1.995 9.101 3.026 13.633l8.403 37.172c1.321 5.813-7.522 8.275-8.843 2.462l-14.678-64.496c-.403-1.749-.793-3.505-1.183-5.26-.62-2.795-1.241-5.59-1.917-8.364-.661-2.629-2.55-2.629-4.844-2.629zm-55.513-9.256h26.764c5.908 0 5.908 9.256 0 9.256h-26.714c-1.727 3.853-5.5705 6.535-10.0347 6.535-6.0795 0-11.008-4.973-11.008-11.108 0-6.134 4.9285-11.107 11.008-11.107 4.4212 0 8.2337 2.63 9.9847 6.424zm59.916 92.097h-33.647c-2.172.022-4.299.627-6.163 1.753-1.864 1.125-3.397 2.731-4.442 4.652-.762 1.408-1.456 2.853-2.151 4.298l-.003.007c-.391.814-.782 1.628-1.185 2.434-.165.328-.339.735-.527 1.177-.629 1.474-1.42 3.329-2.592 3.913-.842.295-1.739.39-2.624.278h-2.374c-1.739-3.824-5.567-6.479-10.0096-6.479-6.0796 0-11.008 4.973-11.008 11.107s4.9284 11.107 11.008 11.107c4.4206 0 8.2336-2.629 9.9846-6.423 1.211-.005 2.416-.021 3.61-.056 2.199-.018 4.353-.628 6.24-1.767s3.438-2.766 4.493-4.712c.771-1.433 1.478-2.906 2.184-4.377l.001-.002.001-.003.002-.003c.369-.769.737-1.537 1.115-2.298.166-.336.335-.73.515-1.149.715-1.664 1.601-3.728 3.154-4.127 1.085-.129 2.181-.129 3.266 0h31.042c5.908 0 5.908-9.256 0-9.256zm36.199-30.693 10.292-32.433 1.486-4.646c1.835-5.683-7.045-8.127-8.843-2.462l-10.311 32.414-1.468 4.665c-1.834 5.683 7.046 8.108 8.844 2.462zm-137.0787 2.97c-1.7487 3.8-5.5641 6.434-9.9893 6.434-6.0795 0-11.008-4.973-11.008-11.107s4.9285-11.107 11.008-11.107c4.457 0 8.2954 2.673 10.0267 6.516h1.1282c.4497 0 .9075.012 1.368.025.9295.024 1.8706.049 2.7783-.025 1.188-.2 2.2496-.865 2.9539-1.851l8.4211-8.497c.6082-.6 1.205-1.241 1.8086-1.89 1.818-1.953 3.6976-3.973 6.1356-5.126 2.739-1.296 5.739-1.249 8.6918-1.202.5479.009 1.0946.017 1.6374.017h12.8424c.288 0 .576-.001.863-.002 3.458-.015 6.819-.029 9.852 2.057 3.669 2.499 4.733 6.22 5.651 10.256l4.495 19.715-.037-.056c1.321 5.813-7.522 8.275-8.843 2.462l-4.899-21.27c-.477-2.11-.917-3.961-3.394-3.961h-20.3832c-.9508-.131-1.9188.017-2.7887.425-.6828.541-1.2988 1.163-1.8347 1.852l-8.3478 8.423c-.4882.492-.9773 1.013-1.4733 1.541-1.8529 1.973-3.8039 4.05-6.1773 5.16-2.8839 1.371-6.2027 1.3-9.394 1.232-.3658-.007-.73-.015-1.0917-.021z"/></g></svg>